<?xml version="1.0" encoding="UTF-8"?>
<!DOCTYPE svg PUBLIC "-//W3C//DTD SVG 1.1//EN" "http://www.w3.org/Graphics/SVG/1.1/DTD/svg11.dtd">
<svg version="1.1" xmlns="http://www.w3.org/2000/svg" xmlns:xlink="http://www.w3.org/1999/xlink" x="0" y="0" width="2592" height="1500" viewBox="0, 0, 2592, 1500">
  <g id="Background">
    <rect x="0" y="0" width="2592" height="1500" fill="#FFFFFF"/>
  </g>
  <g id="Layer_2">
    <path d="M803.541,17.548 L803.541,738.055 L759.928,790.202 C759.928,791.496 747.516,747.45 747.516,747.45 C732.346,695.043 682.697,643.497 608.225,643.497 L467.555,643.497 C401.357,643.497 349.21,701.508 338.436,737.881 L270.925,983.971 L361.087,983.971 L415.647,785.808 L437.799,785.808 L384.444,983.971 L703.352,983.971 L646.203,785.808 L669.476,785.808 L699.988,882.951 C714.411,923.988 750.756,933.443 778.683,898.466 L889.206,765.022 C892.957,760.146 895.52,755.274 897.136,750.456 L2271.18,750.456 L2271.153,17.536 z M828.796,41.941 L2245.925,41.941 L2245.925,726.067 L897.228,726.067 C893.634,715.537 885.512,706.91 875.421,702.019 L1123.662,441.365 L1133.575,450.847 L891.884,704.604 L2221.687,704.604 L2221.687,63.397 L852.993,63.397 L852.993,697.792 C844.687,698.566 836.298,701.958 828.772,708.652 z M540.119,415.076 C483.456,415.076 437.46,460.989 437.46,517.649 C437.46,574.309 483.456,620.223 540.119,620.223 C596.773,620.223 642.692,574.309 642.692,517.649 C642.692,460.989 596.773,415.076 540.119,415.076 z M248.683,1007.518 L248.683,1054.408 L801.793,1054.408 L801.793,1007.518 z M248.683,1063.458 L248.683,1090.006 L713.447,1090.006 L713.447,1451.004 L248.683,1451.004 L248.683,1480.051 L741.112,1480.051 L741.112,1063.474 z M248.683,1093.713 L248.683,1446.437 L706.303,1446.437 L706.303,1093.713 z" fill="#000000" id="path2735"/>
    <path d="M1097.062,64.42 L2223.128,64.42 L2223.128,700.051 L1097.062,700.051 z" fill="#000000"/>
    <g>
      <path d="M1180.728,113.77 L1138.338,113.77 L1138.338,106.09 L1154.979,89.547 C1157.703,86.856 1159.919,84.525 1161.626,82.556 C1163.332,80.587 1164.661,78.79 1165.614,77.165 C1166.565,75.541 1167.205,74.007 1167.534,72.562 C1167.862,71.118 1168.026,69.558 1168.026,67.885 C1168.026,66.309 1167.812,64.808 1167.386,63.38 C1166.959,61.952 1166.303,60.697 1165.417,59.613 C1164.531,58.53 1163.382,57.677 1161.971,57.053 C1160.559,56.43 1158.869,56.118 1156.9,56.118 C1154.175,56.118 1151.697,56.726 1149.465,57.94 C1147.233,59.154 1145.182,60.73 1143.311,62.666 L1138.584,57.004 C1141.013,54.444 1143.811,52.393 1146.979,50.85 C1150.146,49.308 1153.83,48.536 1158.032,48.536 C1160.888,48.536 1163.488,48.963 1165.835,49.816 C1168.181,50.67 1170.208,51.901 1171.915,53.508 C1173.622,55.117 1174.943,57.086 1175.879,59.416 C1176.814,61.747 1177.282,64.373 1177.282,67.293 C1177.282,69.755 1176.953,72.037 1176.297,74.137 C1175.64,76.237 1174.648,78.33 1173.319,80.414 C1171.99,82.499 1170.315,84.656 1168.297,86.888 C1166.279,89.12 1163.891,91.565 1161.134,94.224 L1149.465,105.598 L1180.728,105.598 L1180.728,113.77 z" fill="#FFFFFF"/>
      <path d="M1179.497,215.22 C1179.497,218.044 1178.922,220.694 1177.774,223.172 C1176.625,225.651 1174.902,227.817 1172.605,229.671 C1170.307,231.525 1167.418,232.986 1163.94,234.052 C1160.46,235.119 1156.407,235.652 1151.779,235.652 C1149.219,235.652 1146.921,235.57 1144.886,235.406 C1142.851,235.241 1140.948,235.029 1139.175,234.766 L1139.175,227.086 C1141.21,227.447 1143.36,227.726 1145.625,227.923 C1147.889,228.119 1150.203,228.218 1152.567,228.218 C1155.783,228.218 1158.531,227.931 1160.813,227.356 C1163.094,226.782 1164.956,225.953 1166.401,224.87 C1167.845,223.787 1168.895,222.475 1169.552,220.932 C1170.208,219.389 1170.536,217.65 1170.536,215.713 C1170.536,213.941 1170.142,212.398 1169.355,211.085 C1168.567,209.773 1167.459,208.673 1166.031,207.786 C1164.604,206.9 1162.896,206.236 1160.911,205.792 C1158.925,205.349 1156.75,205.128 1154.388,205.128 L1147.052,205.128 L1147.052,198.087 L1154.486,198.087 C1156.422,198.087 1158.186,197.833 1159.779,197.324 C1161.37,196.815 1162.733,196.085 1163.865,195.133 C1164.997,194.182 1165.867,193.008 1166.475,191.613 C1167.082,190.218 1167.385,188.634 1167.385,186.862 C1167.385,183.416 1166.334,180.905 1164.234,179.329 C1162.134,177.754 1159.048,176.966 1154.978,176.966 C1152.812,176.966 1150.58,177.18 1148.283,177.606 C1145.985,178.033 1143.523,178.673 1140.897,179.527 L1140.897,172.043 C1142.013,171.649 1143.203,171.297 1144.467,170.985 C1145.73,170.673 1146.994,170.411 1148.258,170.197 C1149.521,169.984 1150.777,169.821 1152.025,169.705 C1153.271,169.59 1154.469,169.533 1155.618,169.533 C1159.032,169.533 1162.035,169.902 1164.628,170.64 C1167.221,171.379 1169.387,172.437 1171.127,173.816 C1172.866,175.194 1174.179,176.868 1175.065,178.838 C1175.951,180.807 1176.394,183.023 1176.394,185.484 C1176.394,189.161 1175.451,192.246 1173.564,194.74 C1171.676,197.235 1169.091,199.221 1165.809,200.697 C1167.483,200.961 1169.133,201.485 1170.757,202.273 C1172.382,203.06 1173.842,204.07 1175.139,205.301 C1176.435,206.532 1177.485,207.984 1178.29,209.658 C1179.095,211.331 1179.497,213.186 1179.497,215.22 z" fill="#FFFFFF"/>
      <path d="M1183.928,341.533 L1172.949,341.533 L1172.949,355.762 L1164.185,355.762 L1164.185,341.533 L1133.218,341.533 L1133.218,334.001 L1160.641,291.414 L1172.949,291.414 L1172.949,334.001 L1183.928,334.001 L1183.928,341.533 z M1164.185,299.685 L1141.784,334 L1164.185,334 L1164.185,299.685 z" fill="#FFFFFF"/>
      <path d="M1179.103,456.178 C1179.103,459.361 1178.414,462.266 1177.036,464.892 C1175.657,467.518 1173.761,469.774 1171.349,471.661 C1168.937,473.549 1166.089,475.018 1162.807,476.067 C1159.525,477.118 1155.98,477.643 1152.173,477.643 C1151.22,477.643 1150.195,477.618 1149.096,477.569 C1147.996,477.52 1146.905,477.454 1145.822,477.372 C1144.739,477.29 1143.68,477.199 1142.646,477.101 C1141.612,477.003 1140.684,476.888 1139.864,476.757 L1139.864,468.978 C1141.636,469.405 1143.663,469.717 1145.944,469.914 C1148.225,470.11 1150.531,470.209 1152.861,470.209 C1155.487,470.209 1157.85,469.897 1159.951,469.274 C1162.051,468.65 1163.84,467.756 1165.317,466.591 C1166.794,465.426 1167.927,464.014 1168.715,462.356 C1169.502,460.699 1169.896,458.836 1169.896,456.768 C1169.896,452.765 1168.46,449.851 1165.588,448.029 C1162.716,446.207 1158.588,445.297 1153.206,445.297 L1140.997,445.297 L1140.997,412.409 L1175.657,412.409 L1175.657,419.893 L1149.071,419.893 L1149.071,437.961 L1154.683,437.961 C1157.768,437.961 1160.771,438.24 1163.693,438.798 C1166.614,439.356 1169.215,440.332 1171.496,441.727 C1173.777,443.123 1175.615,444.993 1177.011,447.34 C1178.406,449.687 1179.103,452.632 1179.103,456.178 z" fill="#FFFFFF"/>
      <path d="M1181.516,577.37 C1181.516,580.324 1180.981,583.098 1179.915,585.691 C1178.848,588.284 1177.331,590.54 1175.361,592.46 C1173.392,594.38 1171.02,595.89 1168.247,596.99 C1165.473,598.089 1162.396,598.639 1159.016,598.639 C1155.471,598.639 1152.336,598.073 1149.612,596.941 C1146.888,595.808 1144.607,594.069 1142.769,591.722 C1140.93,589.376 1139.536,586.413 1138.584,582.835 C1137.632,579.258 1137.156,575.024 1137.156,570.133 C1137.156,566.852 1137.369,563.668 1137.796,560.583 C1138.222,557.497 1138.929,554.593 1139.913,551.868 C1140.898,549.144 1142.21,546.649 1143.852,544.385 C1145.492,542.12 1147.535,540.176 1149.981,538.551 C1152.426,536.927 1155.306,535.663 1158.621,534.76 C1161.936,533.858 1165.776,533.406 1170.142,533.406 L1176.493,533.406 L1176.493,540.889 L1169.6,540.889 C1165.76,540.889 1162.428,541.349 1159.605,542.268 C1156.782,543.187 1154.419,544.484 1152.516,546.157 C1150.612,547.832 1149.151,549.85 1148.134,552.213 C1147.117,554.577 1146.477,557.219 1146.214,560.139 L1146.017,562.158 C1148.085,560.944 1150.473,559.968 1153.181,559.229 C1155.889,558.49 1158.818,558.121 1161.969,558.121 C1165.218,558.121 1168.065,558.597 1170.511,559.549 C1172.956,560.501 1174.991,561.822 1176.616,563.512 C1178.24,565.203 1179.463,567.229 1180.284,569.592 C1181.105,571.954 1181.516,574.548 1181.516,577.37 z M1172.555,577.912 C1172.555,575.943 1172.317,574.162 1171.842,572.57 C1171.365,570.978 1170.618,569.633 1169.601,568.533 C1168.584,567.433 1167.295,566.581 1165.737,565.973 C1164.178,565.366 1162.315,565.062 1160.149,565.062 C1158.901,565.062 1157.638,565.178 1156.358,565.407 C1155.078,565.636 1153.822,565.956 1152.592,566.367 C1151.361,566.778 1150.187,567.245 1149.071,567.77 C1147.955,568.295 1146.937,568.853 1146.019,569.444 C1146.019,573.678 1146.314,577.215 1146.905,580.054 C1147.496,582.893 1148.374,585.166 1149.539,586.873 C1150.704,588.58 1152.14,589.794 1153.847,590.516 C1155.553,591.238 1157.522,591.599 1159.755,591.599 C1161.626,591.599 1163.34,591.296 1164.9,590.688 C1166.458,590.081 1167.804,589.187 1168.937,588.005 C1170.069,586.824 1170.955,585.388 1171.595,583.697 C1172.235,582.006 1172.555,580.078 1172.555,577.912 z" fill="#FFFFFF"/>
    </g>
    <g>
      <path d="M1365.545,219.497 L1354.566,219.497 L1352.745,237.565 L1345.458,237.565 L1347.28,219.497 L1334.725,219.497 L1332.904,237.565 L1325.617,237.565 L1327.439,219.497 L1316.952,219.497 L1316.952,213.096 L1328.079,213.096 L1329.851,195.865 L1319.463,195.865 L1319.463,189.465 L1330.491,189.465 L1332.165,173.218 L1339.353,173.218 L1337.728,189.465 L1350.332,189.465 L1352.006,173.218 L1359.292,173.218 L1357.569,189.465 L1368.154,189.465 L1368.154,195.865 L1356.929,195.865 L1355.206,213.096 L1365.545,213.096 L1365.545,219.497 z M1347.969,213.096 L1349.692,195.864 L1337.088,195.864 L1335.365,213.096 L1347.969,213.096 z" fill="#FFFFFF"/>
      <path d="M1476.911,180.701 L1457.857,180.701 L1457.857,237.565 L1448.995,237.565 L1448.995,180.701 L1429.942,180.701 L1429.942,173.217 L1476.911,173.217 L1476.911,180.701 z" fill="#FFFFFF"/>
      <path d="M1528.753,237.565 L1520.187,237.565 L1520.187,206.007 C1520.187,202.199 1519.473,199.352 1518.045,197.464 C1516.617,195.577 1514.574,194.633 1511.916,194.633 C1510.767,194.633 1509.692,194.789 1508.691,195.101 C1507.689,195.413 1506.648,195.954 1505.564,196.726 C1504.481,197.497 1503.3,198.539 1502.019,199.852 C1500.739,201.165 1499.262,202.806 1497.588,204.775 L1497.588,237.565 L1489.021,237.565 L1489.021,167.998 L1497.588,167.998 L1497.588,188.135 L1497.293,195.914 C1498.639,194.305 1499.959,192.952 1501.256,191.852 C1502.553,190.752 1503.849,189.858 1505.146,189.169 C1506.442,188.48 1507.763,187.987 1509.109,187.692 C1510.455,187.397 1511.85,187.249 1513.294,187.249 C1518.217,187.249 1522.025,188.75 1524.716,191.754 C1527.407,194.757 1528.753,199.278 1528.753,205.317 L1528.753,237.565 z" fill="#FFFFFF"/>
      <path d="M1561.297,195.224 L1546.674,195.224 L1546.674,188.135 L1569.961,188.135 L1569.961,230.426 L1584.682,230.426 L1584.682,237.565 L1545.05,237.565 L1545.05,230.426 L1561.297,230.426 L1561.297,195.224 z M1564.3,167.408 C1565.252,167.408 1566.138,167.58 1566.958,167.925 C1567.779,168.269 1568.492,168.753 1569.099,169.377 C1569.706,170.001 1570.182,170.714 1570.527,171.518 C1570.872,172.322 1571.044,173.201 1571.044,174.152 C1571.044,175.071 1570.872,175.941 1570.527,176.761 C1570.182,177.582 1569.706,178.304 1569.099,178.927 C1568.492,179.551 1567.778,180.035 1566.958,180.38 C1566.137,180.724 1565.251,180.897 1564.3,180.897 C1563.348,180.897 1562.461,180.724 1561.641,180.38 C1560.821,180.035 1560.107,179.551 1559.5,178.927 C1558.893,178.304 1558.417,177.581 1558.072,176.761 C1557.727,175.941 1557.555,175.071 1557.555,174.152 C1557.555,173.2 1557.727,172.322 1558.072,171.518 C1558.417,170.714 1558.893,170 1559.5,169.377 C1560.107,168.753 1560.821,168.269 1561.641,167.925 C1562.461,167.58 1563.348,167.408 1564.3,167.408 z" fill="#FFFFFF"/>
      <path d="M1639.036,224.075 C1639.036,225.815 1638.74,227.374 1638.15,228.752 C1637.559,230.131 1636.755,231.353 1635.737,232.42 C1634.719,233.487 1633.538,234.398 1632.192,235.152 C1630.846,235.907 1629.411,236.531 1627.884,237.023 C1626.357,237.516 1624.791,237.876 1623.182,238.106 C1621.574,238.336 1619.999,238.451 1618.456,238.451 C1615.108,238.451 1612.031,238.303 1609.224,238.008 C1606.418,237.712 1603.669,237.236 1600.978,236.58 L1600.978,228.703 C1603.866,229.524 1606.738,230.147 1609.594,230.574 C1612.449,231.001 1615.289,231.214 1618.112,231.214 C1622.214,231.214 1625.25,230.656 1627.22,229.54 C1629.189,228.424 1630.174,226.832 1630.174,224.764 C1630.174,223.878 1630.018,223.082 1629.706,222.377 C1629.394,221.671 1628.828,220.998 1628.008,220.358 C1627.187,219.718 1625.915,219.054 1624.192,218.364 C1622.469,217.675 1620.114,216.888 1617.127,216.001 C1614.895,215.345 1612.836,214.598 1610.948,213.761 C1609.061,212.925 1607.428,211.932 1606.05,210.783 C1604.671,209.634 1603.588,208.288 1602.8,206.745 C1602.012,205.203 1601.618,203.381 1601.618,201.281 C1601.618,199.902 1601.938,198.392 1602.578,196.751 C1603.218,195.11 1604.31,193.584 1605.853,192.172 C1607.395,190.761 1609.479,189.588 1612.105,188.652 C1614.731,187.717 1618.013,187.249 1621.952,187.249 C1623.889,187.249 1626.038,187.356 1628.401,187.569 C1630.764,187.782 1633.226,188.151 1635.786,188.677 L1635.786,196.307 C1633.095,195.651 1630.543,195.167 1628.131,194.855 C1625.718,194.544 1623.626,194.388 1621.853,194.388 C1619.72,194.388 1617.923,194.551 1616.462,194.88 C1615.002,195.208 1613.82,195.659 1612.917,196.234 C1612.015,196.808 1611.367,197.481 1610.973,198.252 C1610.579,199.023 1610.382,199.852 1610.382,200.738 C1610.382,201.624 1610.554,202.429 1610.899,203.15 C1611.244,203.873 1611.884,204.57 1612.819,205.243 C1613.754,205.916 1615.059,206.589 1616.733,207.261 C1618.407,207.934 1620.59,208.664 1623.281,209.452 C1626.202,210.305 1628.664,211.199 1630.666,212.135 C1632.668,213.07 1634.293,214.112 1635.54,215.261 C1636.787,216.41 1637.682,217.706 1638.223,219.151 C1638.765,220.596 1639.036,222.237 1639.036,224.075 z" fill="#FFFFFF"/>
      <path d="M1727.606,195.224 L1712.984,195.224 L1712.984,188.135 L1736.271,188.135 L1736.271,230.426 L1750.992,230.426 L1750.992,237.565 L1711.359,237.565 L1711.359,230.426 L1727.606,230.426 L1727.606,195.224 z M1730.609,167.408 C1731.561,167.408 1732.448,167.58 1733.268,167.925 C1734.088,168.269 1734.802,168.753 1735.409,169.377 C1736.016,170.001 1736.492,170.714 1736.837,171.518 C1737.181,172.322 1737.354,173.201 1737.354,174.152 C1737.354,175.071 1737.181,175.941 1736.837,176.761 C1736.492,177.582 1736.016,178.304 1735.409,178.927 C1734.802,179.551 1734.088,180.035 1733.268,180.38 C1732.447,180.724 1731.561,180.897 1730.609,180.897 C1729.658,180.897 1728.771,180.724 1727.951,180.38 C1727.13,180.035 1726.417,179.551 1725.809,178.927 C1725.203,178.304 1724.726,177.581 1724.382,176.761 C1724.037,175.941 1723.865,175.071 1723.865,174.152 C1723.865,173.2 1724.037,172.322 1724.382,171.518 C1724.726,170.714 1725.203,170 1725.809,169.377 C1726.417,168.753 1727.131,168.269 1727.951,167.925 C1728.772,167.58 1729.658,167.408 1730.609,167.408 z" fill="#FFFFFF"/>
      <path d="M1805.346,224.075 C1805.346,225.815 1805.05,227.374 1804.459,228.752 C1803.869,230.131 1803.064,231.353 1802.047,232.42 C1801.03,233.487 1799.848,234.398 1798.502,235.152 C1797.156,235.907 1795.721,236.531 1794.194,237.023 C1792.668,237.516 1791.101,237.876 1789.492,238.106 C1787.884,238.336 1786.309,238.451 1784.766,238.451 C1781.418,238.451 1778.341,238.303 1775.535,238.008 C1772.728,237.712 1769.98,237.236 1767.288,236.58 L1767.288,228.703 C1770.177,229.524 1773.049,230.147 1775.904,230.574 C1778.76,231.001 1781.599,231.214 1784.422,231.214 C1788.525,231.214 1791.561,230.656 1793.53,229.54 C1795.5,228.424 1796.484,226.832 1796.484,224.764 C1796.484,223.878 1796.328,223.082 1796.016,222.377 C1795.705,221.671 1795.138,220.998 1794.318,220.358 C1793.497,219.718 1792.226,219.054 1790.502,218.364 C1788.779,217.675 1786.424,216.888 1783.437,216.001 C1781.205,215.345 1779.146,214.598 1777.259,213.761 C1775.371,212.925 1773.738,211.932 1772.36,210.783 C1770.981,209.634 1769.898,208.288 1769.11,206.745 C1768.323,205.203 1767.929,203.381 1767.929,201.281 C1767.929,199.902 1768.249,198.392 1768.889,196.751 C1769.529,195.11 1770.62,193.584 1772.163,192.172 C1773.706,190.761 1775.79,189.588 1778.415,188.652 C1781.041,187.717 1784.323,187.249 1788.262,187.249 C1790.199,187.249 1792.349,187.356 1794.712,187.569 C1797.075,187.782 1799.536,188.151 1802.096,188.677 L1802.096,196.307 C1799.405,195.651 1796.853,195.167 1794.441,194.855 C1792.029,194.544 1789.936,194.388 1788.164,194.388 C1786.03,194.388 1784.233,194.551 1782.773,194.88 C1781.312,195.208 1780.13,195.659 1779.228,196.234 C1778.325,196.808 1777.677,197.481 1777.283,198.252 C1776.889,199.023 1776.692,199.852 1776.692,200.738 C1776.692,201.624 1776.865,202.429 1777.209,203.15 C1777.554,203.873 1778.194,204.57 1779.129,205.243 C1780.065,205.916 1781.369,206.589 1783.043,207.261 C1784.717,207.934 1786.9,208.664 1789.591,209.452 C1792.513,210.305 1794.974,211.199 1796.976,212.135 C1798.978,213.07 1800.603,214.112 1801.85,215.261 C1803.098,216.41 1803.992,217.706 1804.533,219.151 C1805.075,220.596 1805.346,222.237 1805.346,224.075 z" fill="#FFFFFF"/>
      <path d="M1908.834,237.565 L1908.637,230.919 C1905.946,233.577 1903.213,235.498 1900.44,236.679 C1897.666,237.861 1894.753,238.451 1891.701,238.451 C1888.878,238.451 1886.466,238.09 1884.464,237.368 C1882.461,236.646 1880.812,235.653 1879.516,234.389 C1878.219,233.126 1877.267,231.641 1876.66,229.934 C1876.053,228.227 1875.75,226.373 1875.75,224.37 C1875.75,219.414 1877.596,215.533 1881.288,212.727 C1884.981,209.921 1890.438,208.517 1897.658,208.517 L1907.899,208.517 L1907.899,204.185 C1907.899,201.263 1906.964,198.925 1905.092,197.169 C1903.222,195.413 1900.366,194.535 1896.526,194.535 C1893.736,194.535 1890.987,194.847 1888.279,195.471 C1885.571,196.094 1882.774,196.98 1879.885,198.129 L1879.885,190.4 C1880.968,190.006 1882.174,189.62 1883.504,189.243 C1884.833,188.865 1886.236,188.529 1887.713,188.233 C1889.19,187.938 1890.733,187.7 1892.341,187.52 C1893.949,187.339 1895.574,187.249 1897.215,187.249 C1900.202,187.249 1902.893,187.577 1905.29,188.233 C1907.686,188.89 1909.713,189.891 1911.37,191.237 C1913.028,192.583 1914.3,194.273 1915.186,196.308 C1916.072,198.343 1916.515,200.739 1916.515,203.496 L1916.515,237.565 L1908.834,237.565 z M1907.898,215.066 L1897.018,215.066 C1894.884,215.066 1893.047,215.279 1891.504,215.706 C1889.961,216.132 1888.698,216.739 1887.713,217.527 C1886.728,218.315 1885.998,219.258 1885.522,220.358 C1885.046,221.458 1884.808,222.696 1884.808,224.075 C1884.808,225.027 1884.956,225.938 1885.251,226.807 C1885.547,227.677 1886.023,228.449 1886.679,229.121 C1887.335,229.794 1888.189,230.327 1889.239,230.721 C1890.289,231.115 1891.569,231.312 1893.079,231.312 C1895.048,231.312 1897.305,230.713 1899.849,229.515 C1902.392,228.317 1905.076,226.421 1907.898,223.828 L1907.898,215.066 z" fill="#FFFFFF"/>
      <path d="M2027.781,236.876 C2025.844,237.368 2023.842,237.721 2021.775,237.934 C2019.707,238.148 2017.606,238.254 2015.473,238.254 C2009.27,238.254 2004.642,236.851 2001.589,234.045 C1998.536,231.239 1997.01,226.931 1997.01,221.121 L1997.01,195.323 L1983.175,195.323 L1983.175,188.135 L1997.01,188.135 L1997.01,174.547 L2005.577,172.332 L2005.577,188.135 L2027.781,188.135 L2027.781,195.323 L2005.577,195.323 L2005.577,220.433 C2005.577,223.977 2006.521,226.627 2008.408,228.383 C2010.295,230.139 2013.077,231.017 2016.753,231.017 C2018.328,231.017 2020.052,230.894 2021.922,230.648 C2023.793,230.402 2025.746,230.016 2027.781,229.491 L2027.781,236.876 z" fill="#FFFFFF"/>
      <path d="M2085.138,210.241 C2085.138,211.455 2085.122,212.473 2085.089,213.293 C2085.056,214.114 2085.007,214.885 2084.941,215.607 L2050.232,215.607 C2050.232,220.662 2051.643,224.543 2054.466,227.251 C2057.289,229.958 2061.359,231.313 2066.676,231.313 C2068.12,231.313 2069.564,231.255 2071.009,231.14 C2072.453,231.026 2073.847,230.87 2075.193,230.673 C2076.539,230.476 2077.827,230.254 2079.058,230.008 C2080.29,229.762 2081.43,229.491 2082.48,229.196 L2082.48,236.236 C2080.15,236.892 2077.516,237.426 2074.578,237.836 C2071.641,238.246 2068.596,238.451 2065.445,238.451 C2061.211,238.451 2057.568,237.877 2054.515,236.728 C2051.463,235.579 2048.96,233.914 2047.007,231.731 C2045.055,229.548 2043.61,226.873 2042.675,223.706 C2041.739,220.539 2041.272,216.953 2041.272,212.949 C2041.272,209.47 2041.772,206.179 2042.773,203.077 C2043.775,199.976 2045.235,197.252 2047.155,194.905 C2049.075,192.558 2051.43,190.695 2054.22,189.317 C2057.01,187.939 2060.177,187.249 2063.722,187.249 C2067.168,187.249 2070.221,187.791 2072.88,188.874 C2075.538,189.957 2077.778,191.491 2079.6,193.477 C2081.421,195.463 2082.8,197.875 2083.736,200.714 C2084.67,203.553 2085.138,206.729 2085.138,210.241 z M2076.227,209.01 C2076.325,206.811 2076.112,204.8 2075.587,202.979 C2075.062,201.157 2074.249,199.59 2073.15,198.277 C2072.051,196.964 2070.68,195.939 2069.039,195.2 C2067.397,194.461 2065.494,194.092 2063.328,194.092 C2061.457,194.092 2059.75,194.453 2058.208,195.175 C2056.665,195.897 2055.335,196.915 2054.219,198.228 C2053.104,199.541 2052.201,201.116 2051.512,202.954 C2050.823,204.793 2050.396,206.811 2050.232,209.01 L2076.227,209.01 z" fill="#FFFFFF"/>
      <path d="M2137.965,224.075 C2137.965,225.815 2137.67,227.374 2137.079,228.752 C2136.488,230.131 2135.684,231.353 2134.667,232.42 C2133.649,233.487 2132.468,234.398 2131.122,235.152 C2129.776,235.907 2128.34,236.531 2126.814,237.023 C2125.288,237.516 2123.72,237.876 2122.112,238.106 C2120.504,238.336 2118.928,238.451 2117.385,238.451 C2114.038,238.451 2110.961,238.303 2108.154,238.008 C2105.348,237.712 2102.599,237.236 2099.908,236.58 L2099.908,228.703 C2102.796,229.524 2105.668,230.147 2108.524,230.574 C2111.38,231.001 2114.219,231.214 2117.041,231.214 C2121.144,231.214 2124.18,230.656 2126.149,229.54 C2128.118,228.424 2129.104,226.832 2129.104,224.764 C2129.104,223.878 2128.948,223.082 2128.636,222.377 C2128.324,221.671 2127.758,220.998 2126.937,220.358 C2126.117,219.718 2124.845,219.054 2123.122,218.364 C2121.399,217.675 2119.043,216.888 2116.057,216.001 C2113.825,215.345 2111.765,214.598 2109.878,213.761 C2107.991,212.925 2106.358,211.932 2104.979,210.783 C2103.601,209.634 2102.518,208.288 2101.73,206.745 C2100.942,205.203 2100.548,203.381 2100.548,201.281 C2100.548,199.902 2100.868,198.392 2101.508,196.751 C2102.148,195.11 2103.24,193.584 2104.782,192.172 C2106.325,190.761 2108.409,189.588 2111.034,188.652 C2113.66,187.717 2116.942,187.249 2120.881,187.249 C2122.818,187.249 2124.968,187.356 2127.331,187.569 C2129.694,187.782 2132.156,188.151 2134.716,188.677 L2134.716,196.307 C2132.025,195.651 2129.473,195.167 2127.061,194.855 C2124.648,194.544 2122.555,194.388 2120.783,194.388 C2118.65,194.388 2116.853,194.551 2115.392,194.88 C2113.932,195.208 2112.75,195.659 2111.847,196.234 C2110.944,196.808 2110.297,197.481 2109.903,198.252 C2109.509,199.023 2109.312,199.852 2109.312,200.738 C2109.312,201.624 2109.484,202.429 2109.829,203.15 C2110.173,203.873 2110.813,204.57 2111.749,205.243 C2112.684,205.916 2113.989,206.589 2115.663,207.261 C2117.337,207.934 2119.52,208.664 2122.211,209.452 C2125.132,210.305 2127.594,211.199 2129.596,212.135 C2131.598,213.07 2133.223,214.112 2134.47,215.261 C2135.717,216.41 2136.612,217.706 2137.153,219.151 C2137.694,220.596 2137.965,222.237 2137.965,224.075 z" fill="#FFFFFF"/>
      <path d="M2194.091,236.876 C2192.155,237.368 2190.152,237.721 2188.085,237.934 C2186.017,238.148 2183.917,238.254 2181.783,238.254 C2175.58,238.254 2170.952,236.851 2167.899,234.045 C2164.846,231.239 2163.32,226.931 2163.32,221.121 L2163.32,195.323 L2149.486,195.323 L2149.486,188.135 L2163.32,188.135 L2163.32,174.547 L2171.887,172.332 L2171.887,188.135 L2194.091,188.135 L2194.091,195.323 L2171.887,195.323 L2171.887,220.433 C2171.887,223.977 2172.831,226.627 2174.718,228.383 C2176.605,230.139 2179.387,231.017 2183.063,231.017 C2184.638,231.017 2186.362,230.894 2188.232,230.648 C2190.103,230.402 2192.056,230.016 2194.091,229.491 L2194.091,236.876 z" fill="#FFFFFF"/>
    </g>
    <g>
      <path d="M1368.957,355.62 C1366.725,356.473 1364.436,357.105 1362.089,357.515 C1359.742,357.925 1357.322,358.131 1354.827,358.131 C1347.016,358.131 1341.001,356.014 1336.783,351.78 C1332.566,347.545 1330.457,341.358 1330.457,333.219 C1330.457,329.313 1331.064,325.768 1332.278,322.584 C1333.493,319.401 1335.2,316.676 1337.399,314.411 C1339.598,312.146 1342.224,310.399 1345.276,309.168 C1348.328,307.937 1351.692,307.322 1355.369,307.322 C1357.929,307.322 1360.325,307.503 1362.557,307.863 C1364.788,308.224 1366.922,308.815 1368.957,309.636 L1368.957,317.809 C1366.823,316.693 1364.649,315.88 1362.433,315.372 C1360.218,314.863 1357.929,314.609 1355.566,314.609 C1353.366,314.609 1351.291,315.027 1349.338,315.864 C1347.385,316.701 1345.67,317.907 1344.193,319.483 C1342.716,321.058 1341.551,322.979 1340.697,325.243 C1339.844,327.508 1339.417,330.068 1339.417,332.923 C1339.417,338.897 1340.869,343.369 1343.774,346.339 C1346.679,349.31 1350.708,350.795 1355.861,350.795 C1358.191,350.795 1360.448,350.533 1362.63,350.007 C1364.813,349.482 1366.922,348.694 1368.957,347.644 L1368.957,355.62 z" fill="#FFFFFF"/>
      <path d="M1429.021,332.333 C1429.021,336.173 1428.48,339.693 1427.397,342.893 C1426.314,346.094 1424.755,348.834 1422.72,351.115 C1420.684,353.397 1418.206,355.169 1415.286,356.433 C1412.364,357.696 1409.049,358.328 1405.34,358.328 C1401.795,358.328 1398.62,357.778 1395.814,356.679 C1393.007,355.579 1390.628,353.963 1388.675,351.829 C1386.722,349.696 1385.228,347.054 1384.195,343.903 C1383.161,340.752 1382.644,337.125 1382.644,333.022 C1382.644,329.182 1383.185,325.678 1384.268,322.511 C1385.351,319.344 1386.911,316.619 1388.946,314.338 C1390.981,312.057 1393.458,310.285 1396.38,309.021 C1399.301,307.758 1402.616,307.126 1406.325,307.126 C1409.87,307.126 1413.045,307.676 1415.852,308.775 C1418.658,309.875 1421.037,311.483 1422.99,313.6 C1424.943,315.717 1426.437,318.351 1427.471,321.502 C1428.505,324.652 1429.021,328.263 1429.021,332.333 z M1420.258,332.726 C1420.258,329.674 1419.922,327.007 1419.249,324.726 C1418.576,322.445 1417.616,320.541 1416.369,319.015 C1415.122,317.489 1413.604,316.34 1411.815,315.569 C1410.026,314.797 1408.032,314.412 1405.833,314.412 C1403.273,314.412 1401.082,314.913 1399.26,315.913 C1397.439,316.915 1395.945,318.252 1394.78,319.926 C1393.615,321.6 1392.762,323.545 1392.22,325.76 C1391.678,327.975 1391.408,330.298 1391.408,332.726 C1391.408,335.779 1391.744,338.454 1392.417,340.751 C1393.09,343.049 1394.05,344.961 1395.297,346.487 C1396.545,348.013 1398.054,349.162 1399.827,349.933 C1401.599,350.705 1403.601,351.09 1405.833,351.09 C1408.393,351.09 1410.584,350.59 1412.406,349.589 C1414.227,348.588 1415.721,347.25 1416.886,345.576 C1418.051,343.902 1418.904,341.957 1419.446,339.742 C1419.987,337.527 1420.258,335.188 1420.258,332.726 z" fill="#FFFFFF"/>
      <path d="M1481.16,357.442 L1473.479,357.442 L1473.184,349.466 C1471.707,351.173 1470.304,352.593 1468.974,353.725 C1467.645,354.857 1466.324,355.768 1465.011,356.457 C1463.698,357.146 1462.377,357.631 1461.048,357.909 C1459.719,358.189 1458.315,358.328 1456.838,358.328 C1451.751,358.328 1447.911,356.834 1445.318,353.848 C1442.725,350.861 1441.428,346.348 1441.428,340.309 L1441.428,308.012 L1449.995,308.012 L1449.995,339.619 C1449.995,347.201 1452.851,350.992 1458.562,350.992 C1459.612,350.992 1460.638,350.836 1461.639,350.525 C1462.64,350.213 1463.69,349.671 1464.79,348.9 C1465.89,348.129 1467.071,347.086 1468.335,345.773 C1469.599,344.461 1471.018,342.803 1472.594,340.801 L1472.594,308.012 L1481.161,308.012 L1481.161,357.442 z" fill="#FFFFFF"/>
      <path d="M1496.865,308.012 L1504.496,308.012 L1504.84,315.987 C1506.285,314.28 1507.679,312.861 1509.025,311.728 C1510.371,310.596 1511.692,309.685 1512.989,308.996 C1514.285,308.307 1515.606,307.823 1516.952,307.544 C1518.298,307.265 1519.693,307.125 1521.137,307.125 C1526.224,307.125 1530.073,308.627 1532.682,311.63 C1535.292,314.634 1536.596,319.155 1536.596,325.194 L1536.596,357.442 L1528.029,357.442 L1528.029,325.883 C1528.029,322.01 1527.307,319.146 1525.863,317.292 C1524.419,315.437 1522.269,314.51 1519.414,314.51 C1518.363,314.51 1517.338,314.666 1516.337,314.978 C1515.335,315.29 1514.294,315.831 1513.21,316.603 C1512.127,317.374 1510.953,318.416 1509.69,319.729 C1508.426,321.042 1507.007,322.683 1505.431,324.652 L1505.431,357.442 L1496.864,357.442 L1496.864,308.012 z" fill="#FFFFFF"/>
      <path d="M1592.131,356.753 C1590.195,357.245 1588.193,357.598 1586.125,357.811 C1584.057,358.024 1581.957,358.131 1579.823,358.131 C1573.62,358.131 1568.992,356.728 1565.939,353.921 C1562.886,351.115 1561.36,346.807 1561.36,340.998 L1561.36,315.199 L1547.526,315.199 L1547.526,308.012 L1561.36,308.012 L1561.36,294.423 L1569.927,292.208 L1569.927,308.012 L1592.131,308.012 L1592.131,315.2 L1569.927,315.2 L1569.927,340.309 C1569.927,343.854 1570.871,346.504 1572.758,348.26 C1574.646,350.016 1577.427,350.894 1581.103,350.894 C1582.678,350.894 1584.402,350.771 1586.272,350.525 C1588.143,350.278 1590.096,349.893 1592.131,349.368 L1592.131,356.753 z" fill="#FFFFFF"/>
      <path d="M1655.297,377.627 L1599.861,377.627 L1599.861,370.538 L1655.297,370.538 L1655.297,377.627 z" fill="#FFFFFF"/>
      <path d="M1703.004,356.753 C1701.068,357.245 1699.066,357.598 1696.998,357.811 C1694.93,358.024 1692.83,358.131 1690.696,358.131 C1684.493,358.131 1679.865,356.728 1676.812,353.921 C1673.76,351.115 1672.233,346.807 1672.233,340.998 L1672.233,315.199 L1658.399,315.199 L1658.399,308.012 L1672.233,308.012 L1672.233,294.423 L1680.8,292.208 L1680.8,308.012 L1703.004,308.012 L1703.004,315.2 L1680.8,315.2 L1680.8,340.309 C1680.8,343.854 1681.744,346.504 1683.631,348.26 C1685.519,350.016 1688.3,350.894 1691.976,350.894 C1693.551,350.894 1695.275,350.771 1697.146,350.525 C1699.016,350.278 1700.969,349.893 1703.004,349.368 L1703.004,356.753 z" fill="#FFFFFF"/>
      <path d="M1761.641,332.333 C1761.641,336.173 1761.1,339.693 1760.017,342.893 C1758.934,346.094 1757.375,348.834 1755.339,351.115 C1753.304,353.397 1750.827,355.169 1747.905,356.433 C1744.984,357.696 1741.669,358.328 1737.96,358.328 C1734.415,358.328 1731.24,357.778 1728.433,356.679 C1725.627,355.579 1723.248,353.963 1721.295,351.829 C1719.342,349.696 1717.848,347.054 1716.814,343.903 C1715.781,340.752 1715.264,337.125 1715.264,333.022 C1715.264,329.182 1715.805,325.678 1716.888,322.511 C1717.971,319.344 1719.53,316.619 1721.566,314.338 C1723.601,312.057 1726.078,310.285 1729,309.021 C1731.921,307.758 1735.236,307.126 1738.945,307.126 C1742.49,307.126 1745.665,307.676 1748.472,308.775 C1751.278,309.874 1753.657,311.483 1755.61,313.6 C1757.563,315.717 1759.057,318.351 1760.09,321.502 C1761.124,324.652 1761.641,328.263 1761.641,332.333 z M1752.878,332.726 C1752.878,329.674 1752.541,327.007 1751.868,324.726 C1751.195,322.445 1750.235,320.541 1748.988,319.015 C1747.741,317.489 1746.223,316.34 1744.434,315.569 C1742.645,314.797 1740.651,314.412 1738.452,314.412 C1735.892,314.412 1733.701,314.913 1731.88,315.913 C1730.058,316.915 1728.564,318.252 1727.399,319.926 C1726.234,321.6 1725.381,323.545 1724.839,325.76 C1724.298,327.975 1724.027,330.298 1724.027,332.726 C1724.027,335.779 1724.363,338.454 1725.036,340.751 C1725.709,343.049 1726.669,344.961 1727.916,346.487 C1729.164,348.013 1730.673,349.162 1732.446,349.933 C1734.218,350.705 1736.22,351.09 1738.452,351.09 C1741.012,351.09 1743.203,350.59 1745.025,349.589 C1746.846,348.588 1748.34,347.25 1749.505,345.576 C1750.67,343.902 1751.523,341.957 1752.065,339.742 C1752.606,337.527 1752.878,335.188 1752.878,332.726 z" fill="#FFFFFF"/>
      <path d="M1870.496,325.637 L1828.155,325.637 L1828.155,318.4 L1870.496,318.4 L1870.496,325.637 z M1870.496,342.77 L1828.155,342.77 L1828.155,335.533 L1870.496,335.533 L1870.496,342.77 z" fill="#FFFFFF"/>
      <path d="M1982.108,357.442 L1939.718,357.442 L1939.718,349.762 L1956.359,333.219 C1959.083,330.528 1961.298,328.197 1963.005,326.228 C1964.712,324.259 1966.041,322.462 1966.993,320.837 C1967.945,319.213 1968.585,317.678 1968.913,316.234 C1969.241,314.789 1969.405,313.23 1969.405,311.557 C1969.405,309.981 1969.192,308.479 1968.765,307.052 C1968.338,305.624 1967.682,304.369 1966.796,303.285 C1965.91,302.202 1964.761,301.348 1963.349,300.725 C1961.938,300.101 1960.248,299.79 1958.278,299.79 C1955.554,299.79 1953.076,300.397 1950.844,301.611 C1948.613,302.826 1946.561,304.401 1944.69,306.338 L1939.964,300.676 C1942.393,298.116 1945.191,296.064 1948.358,294.522 C1951.526,292.979 1955.21,292.208 1959.411,292.208 C1962.266,292.208 1964.868,292.635 1967.214,293.488 C1969.561,294.341 1971.588,295.572 1973.295,297.181 C1975.001,298.789 1976.323,300.758 1977.258,303.089 C1978.193,305.419 1978.661,308.045 1978.661,310.966 C1978.661,313.427 1978.333,315.708 1977.677,317.809 C1977.02,319.91 1976.027,322.002 1974.698,324.086 C1973.369,326.171 1971.695,328.328 1969.676,330.56 C1967.658,332.792 1965.27,335.238 1962.513,337.896 L1950.845,349.269 L1982.108,349.269 L1982.108,357.442 z" fill="#AB7C3E"/>
      <path d="M2036.313,337.896 C2036.313,340.719 2035.739,343.369 2034.59,345.847 C2033.441,348.325 2031.718,350.491 2029.421,352.346 C2027.123,354.2 2024.235,355.661 2020.756,356.727 C2017.276,357.794 2013.223,358.327 2008.595,358.327 C2006.035,358.327 2003.737,358.245 2001.703,358.081 C1999.668,357.917 1997.764,357.704 1995.992,357.441 L1995.992,349.761 C1998.027,350.122 2000.177,350.401 2002.441,350.598 C2004.706,350.795 2007.02,350.893 2009.383,350.893 C2012.599,350.893 2015.348,350.606 2017.629,350.032 C2019.911,349.457 2021.773,348.629 2023.217,347.546 C2024.661,346.463 2025.712,345.15 2026.368,343.607 C2027.025,342.064 2027.352,340.325 2027.352,338.388 C2027.352,336.616 2026.959,335.073 2026.171,333.76 C2025.383,332.447 2024.276,331.348 2022.848,330.461 C2021.42,329.575 2019.713,328.911 2017.727,328.468 C2015.741,328.025 2013.567,327.803 2011.204,327.803 L2003.868,327.803 L2003.868,320.763 L2011.302,320.763 C2013.239,320.763 2015.003,320.508 2016.595,320 C2018.187,319.491 2019.549,318.761 2020.681,317.809 C2021.814,316.857 2022.684,315.684 2023.291,314.289 C2023.898,312.894 2024.202,311.31 2024.202,309.538 C2024.202,306.091 2023.151,303.581 2021.051,302.005 C2018.95,300.43 2015.865,299.642 2011.795,299.642 C2009.629,299.642 2007.397,299.855 2005.099,300.282 C2002.802,300.709 2000.34,301.349 1997.714,302.202 L1997.714,294.719 C1998.83,294.325 2000.02,293.972 2001.284,293.66 C2002.547,293.349 2003.811,293.086 2005.075,292.873 C2006.339,292.659 2007.594,292.495 2008.841,292.38 C2010.088,292.266 2011.286,292.208 2012.436,292.208 C2015.849,292.208 2018.852,292.577 2021.445,293.316 C2024.038,294.054 2026.204,295.113 2027.944,296.491 C2029.684,297.87 2030.997,299.544 2031.883,301.513 C2032.769,303.482 2033.212,305.698 2033.212,308.16 C2033.212,311.836 2032.268,314.921 2030.381,317.416 C2028.494,319.91 2025.909,321.896 2022.627,323.373 C2024.301,323.635 2025.95,324.161 2027.575,324.948 C2029.199,325.736 2030.66,326.745 2031.957,327.976 C2033.253,329.207 2034.303,330.659 2035.107,332.333 C2035.911,334.006 2036.313,335.861 2036.313,337.896 z" fill="#AB7C3E"/>
      <path d="M2150.091,334.351 L2130.742,334.351 L2130.742,354.438 L2122.274,354.438 L2122.274,334.351 L2102.926,334.351 L2102.926,326.868 L2122.274,326.868 L2122.274,306.928 L2130.742,306.928 L2130.742,326.868 L2150.091,326.868 L2150.091,334.351 z" fill="#FFFFFF"/>
    </g>
    <g>
      <path d="M1376.158,568.229 C1376.158,572.627 1375.543,576.467 1374.312,579.749 C1373.081,583.031 1371.382,585.756 1369.216,587.922 C1367.05,590.089 1364.49,591.713 1361.536,592.796 C1358.582,593.879 1355.382,594.421 1351.935,594.421 C1350.36,594.421 1348.793,594.339 1347.234,594.175 C1345.675,594.011 1344.091,593.732 1342.483,593.338 L1342.483,614.016 L1333.916,614.016 L1333.916,544.4 L1341.547,544.4 L1342.088,552.671 C1344.55,549.29 1347.176,546.919 1349.965,545.557 C1352.755,544.195 1355.775,543.514 1359.025,543.514 C1361.847,543.514 1364.325,544.105 1366.459,545.286 C1368.592,546.468 1370.381,548.134 1371.825,550.283 C1373.269,552.433 1374.352,555.026 1375.075,558.062 C1375.797,561.098 1376.158,564.487 1376.158,568.229 z M1367.395,568.623 C1367.395,566.03 1367.206,563.65 1366.829,561.484 C1366.451,559.318 1365.852,557.463 1365.032,555.921 C1364.211,554.378 1363.161,553.172 1361.881,552.302 C1360.601,551.432 1359.074,550.997 1357.302,550.997 C1356.219,550.997 1355.119,551.169 1354.003,551.514 C1352.887,551.859 1351.73,552.433 1350.532,553.237 C1349.334,554.041 1348.071,555.108 1346.741,556.438 C1345.412,557.767 1343.992,559.416 1342.482,561.385 L1342.482,585.362 C1344.057,586.018 1345.715,586.535 1347.455,586.913 C1349.194,587.29 1350.901,587.479 1352.575,587.479 C1357.203,587.479 1360.83,585.911 1363.456,582.777 C1366.081,579.643 1367.395,574.924 1367.395,568.623 z" fill="#FFFFFF"/>
      <path d="M1391.371,544.4 L1399.199,544.4 L1399.445,553.508 C1402.366,549.996 1405.246,547.452 1408.086,545.877 C1410.925,544.302 1413.789,543.514 1416.677,543.514 C1421.797,543.514 1425.679,545.171 1428.321,548.487 C1430.963,551.802 1432.186,556.725 1431.989,563.257 L1423.324,563.257 C1423.422,558.924 1422.791,555.781 1421.428,553.828 C1420.066,551.875 1418.072,550.899 1415.447,550.899 C1414.297,550.899 1413.141,551.104 1411.975,551.514 C1410.81,551.924 1409.612,552.581 1408.381,553.483 C1407.151,554.386 1405.846,555.543 1404.467,556.954 C1403.089,558.366 1401.611,560.073 1400.036,562.075 L1400.036,593.83 L1391.371,593.83 L1391.371,544.4 z" fill="#FFFFFF"/>
      <path d="M1461.627,551.49 L1447.005,551.49 L1447.005,544.4 L1470.292,544.4 L1470.292,586.692 L1485.013,586.692 L1485.013,593.83 L1445.38,593.83 L1445.38,586.692 L1461.627,586.692 L1461.627,551.49 z M1464.63,523.673 C1465.582,523.673 1466.468,523.845 1467.288,524.19 C1468.109,524.534 1468.823,525.018 1469.43,525.642 C1470.037,526.266 1470.513,526.979 1470.858,527.783 C1471.202,528.587 1471.375,529.466 1471.375,530.418 C1471.375,531.337 1471.202,532.207 1470.858,533.027 C1470.513,533.847 1470.037,534.57 1469.43,535.193 C1468.823,535.817 1468.109,536.3 1467.288,536.645 C1466.468,536.99 1465.582,537.162 1464.63,537.162 C1463.678,537.162 1462.792,536.99 1461.971,536.645 C1461.151,536.3 1460.437,535.817 1459.83,535.193 C1459.223,534.569 1458.747,533.847 1458.402,533.027 C1458.058,532.206 1457.885,531.336 1457.885,530.418 C1457.885,529.466 1458.058,528.588 1458.402,527.783 C1458.747,526.979 1459.223,526.265 1459.83,525.642 C1460.437,525.018 1461.151,524.534 1461.971,524.19 C1462.792,523.845 1463.678,523.673 1464.63,523.673 z" fill="#FFFFFF"/>
      <path d="M1500.226,544.4 L1507.857,544.4 L1508.202,552.375 C1509.646,550.668 1511.041,549.249 1512.386,548.116 C1513.732,546.984 1515.053,546.073 1516.35,545.384 C1517.647,544.695 1518.967,544.21 1520.313,543.932 C1521.659,543.652 1523.054,543.513 1524.498,543.513 C1529.586,543.513 1533.434,545.015 1536.043,548.018 C1538.653,551.021 1539.958,555.543 1539.958,561.582 L1539.958,593.829 L1531.391,593.829 L1531.391,562.271 C1531.391,558.398 1530.669,555.534 1529.225,553.679 C1527.78,551.825 1525.63,550.898 1522.775,550.898 C1521.725,550.898 1520.699,551.054 1519.698,551.366 C1518.697,551.677 1517.655,552.219 1516.571,552.99 C1515.488,553.762 1514.315,554.804 1513.051,556.117 C1511.787,557.43 1510.368,559.071 1508.792,561.04 L1508.792,593.829 L1500.226,593.829 L1500.226,544.4 z" fill="#FFFFFF"/>
      <path d="M1595.492,593.141 C1593.556,593.633 1591.553,593.986 1589.486,594.199 C1587.418,594.412 1585.318,594.519 1583.184,594.519 C1576.981,594.519 1572.353,593.116 1569.3,590.309 C1566.247,587.503 1564.721,583.195 1564.721,577.386 L1564.721,551.588 L1550.887,551.588 L1550.887,544.4 L1564.721,544.4 L1564.721,530.811 L1573.288,528.596 L1573.288,544.4 L1595.492,544.4 L1595.492,551.588 L1573.288,551.588 L1573.288,576.697 C1573.288,580.242 1574.232,582.892 1576.119,584.648 C1578.006,586.404 1580.788,587.281 1584.464,587.281 C1586.039,587.281 1587.763,587.158 1589.633,586.912 C1591.504,586.666 1593.457,586.28 1595.492,585.755 L1595.492,593.141 z" fill="#FFFFFF"/>
      <path d="M1704.938,592.008 C1702.706,592.862 1700.417,593.494 1698.07,593.904 C1695.723,594.314 1693.302,594.519 1690.808,594.519 C1682.996,594.519 1676.982,592.402 1672.764,588.168 C1668.547,583.934 1666.438,577.747 1666.438,569.607 C1666.438,565.701 1667.045,562.156 1668.259,558.973 C1669.474,555.789 1671.18,553.065 1673.38,550.8 C1675.578,548.535 1678.204,546.787 1681.257,545.556 C1684.31,544.326 1687.674,543.71 1691.35,543.71 C1693.91,543.71 1696.306,543.891 1698.538,544.252 C1700.77,544.613 1702.903,545.204 1704.938,546.024 L1704.938,554.197 C1702.805,553.081 1700.63,552.269 1698.415,551.76 C1696.199,551.251 1693.91,550.997 1691.547,550.997 C1689.348,550.997 1687.272,551.415 1685.319,552.252 C1683.366,553.089 1681.651,554.295 1680.174,555.871 C1678.697,557.446 1677.532,559.367 1676.678,561.631 C1675.825,563.896 1675.398,566.456 1675.398,569.311 C1675.398,575.285 1676.851,579.757 1679.755,582.727 C1682.661,585.698 1686.689,587.183 1691.842,587.183 C1694.173,587.183 1696.429,586.921 1698.612,586.395 C1700.794,585.87 1702.903,585.082 1704.938,584.032 L1704.938,592.008 z" fill="#FFFFFF"/>
      <path d="M1765.002,568.721 C1765.002,572.561 1764.461,576.081 1763.378,579.282 C1762.295,582.482 1760.735,585.223 1758.7,587.504 C1756.665,589.785 1754.188,591.557 1751.266,592.821 C1748.345,594.085 1745.03,594.716 1741.321,594.716 C1737.776,594.716 1734.601,594.166 1731.794,593.067 C1728.988,591.967 1726.609,590.351 1724.656,588.218 C1722.703,586.084 1721.209,583.442 1720.175,580.291 C1719.142,577.141 1718.625,573.513 1718.625,569.411 C1718.625,565.57 1719.166,562.067 1720.249,558.899 C1721.332,555.732 1722.891,553.008 1724.926,550.726 C1726.962,548.445 1729.439,546.673 1732.36,545.409 C1735.282,544.146 1738.597,543.514 1742.306,543.514 C1745.851,543.514 1749.026,544.064 1751.832,545.163 C1754.639,546.263 1757.018,547.871 1758.971,549.988 C1760.924,552.105 1762.418,554.739 1763.451,557.89 C1764.485,561.04 1765.002,564.651 1765.002,568.721 z M1756.239,569.115 C1756.239,566.063 1755.902,563.396 1755.229,561.115 C1754.556,558.833 1753.596,556.93 1752.349,555.404 C1751.101,553.878 1749.584,552.729 1747.795,551.957 C1746.006,551.186 1744.012,550.8 1741.813,550.8 C1739.253,550.8 1737.062,551.301 1735.24,552.302 C1733.419,553.303 1731.925,554.64 1730.76,556.314 C1729.595,557.988 1728.742,559.933 1728.2,562.148 C1727.659,564.364 1727.388,566.686 1727.388,569.115 C1727.388,572.168 1727.724,574.842 1728.397,577.14 C1729.07,579.438 1730.03,581.35 1731.277,582.876 C1732.524,584.402 1734.034,585.551 1735.807,586.322 C1737.579,587.094 1739.581,587.479 1741.813,587.479 C1744.373,587.479 1746.564,586.979 1748.385,585.978 C1750.207,584.976 1751.701,583.639 1752.866,581.965 C1754.031,580.291 1754.884,578.346 1755.426,576.131 C1755.967,573.916 1756.239,571.576 1756.239,569.115 z" fill="#FFFFFF"/>
      <path d="M1817.14,593.83 L1809.46,593.83 L1809.164,585.854 C1807.688,587.561 1806.284,588.981 1804.955,590.113 C1803.626,591.245 1802.304,592.156 1800.991,592.846 C1799.679,593.535 1798.357,594.019 1797.028,594.298 C1795.699,594.577 1794.295,594.716 1792.819,594.716 C1787.731,594.716 1783.891,593.223 1781.298,590.236 C1778.705,587.249 1777.408,582.736 1777.408,576.697 L1777.408,544.4 L1785.975,544.4 L1785.975,576.008 C1785.975,583.59 1788.831,587.381 1794.542,587.381 C1795.593,587.381 1796.618,587.225 1797.619,586.913 C1798.62,586.601 1799.671,586.059 1800.77,585.288 C1801.87,584.517 1803.052,583.475 1804.315,582.162 C1805.579,580.849 1806.998,579.192 1808.574,577.189 L1808.574,544.4 L1817.141,544.4 L1817.141,593.83 z" fill="#FFFFFF"/>
      <path d="M1832.845,544.4 L1840.476,544.4 L1840.821,552.375 C1842.265,550.668 1843.66,549.249 1845.006,548.116 C1846.352,546.984 1847.673,546.073 1848.969,545.384 C1850.266,544.694 1851.587,544.21 1852.933,543.932 C1854.279,543.652 1855.673,543.513 1857.118,543.513 C1862.205,543.513 1866.054,545.015 1868.663,548.018 C1871.272,551.021 1872.577,555.543 1872.577,561.582 L1872.577,593.829 L1864.01,593.829 L1864.01,562.271 C1864.01,558.398 1863.288,555.534 1861.844,553.679 C1860.4,551.825 1858.25,550.898 1855.395,550.898 C1854.344,550.898 1853.319,551.054 1852.317,551.366 C1851.317,551.677 1850.274,552.219 1849.191,552.99 C1848.108,553.762 1846.934,554.804 1845.671,556.117 C1844.407,557.43 1842.988,559.071 1841.412,561.04 L1841.412,593.829 L1832.845,593.829 L1832.845,544.4 z" fill="#FFFFFF"/>
      <path d="M1928.112,593.141 C1926.175,593.633 1924.173,593.986 1922.106,594.199 C1920.038,594.412 1917.937,594.519 1915.804,594.519 C1909.6,594.519 1904.973,593.116 1901.92,590.309 C1898.867,587.503 1897.341,583.195 1897.341,577.386 L1897.341,551.588 L1883.506,551.588 L1883.506,544.4 L1897.341,544.4 L1897.341,530.811 L1905.908,528.596 L1905.908,544.4 L1928.112,544.4 L1928.112,551.588 L1905.908,551.588 L1905.908,576.697 C1905.908,580.242 1906.852,582.892 1908.739,584.648 C1910.626,586.404 1913.408,587.281 1917.084,587.281 C1918.659,587.281 1920.383,587.158 1922.253,586.912 C1924.124,586.666 1926.077,586.28 1928.112,585.755 L1928.112,593.141 z" fill="#FFFFFF"/>
      <path d="M1991.278,614.016 L1935.842,614.016 L1935.842,606.926 L1991.278,606.926 L1991.278,614.016 z" fill="#FFFFFF"/>
      <path d="M2038.985,593.141 C2037.049,593.633 2035.047,593.986 2032.979,594.199 C2030.911,594.412 2028.811,594.519 2026.677,594.519 C2020.474,594.519 2015.846,593.116 2012.793,590.309 C2009.74,587.503 2008.214,583.195 2008.214,577.386 L2008.214,551.588 L1994.38,551.588 L1994.38,544.4 L2008.214,544.4 L2008.214,530.811 L2016.781,528.596 L2016.781,544.4 L2038.985,544.4 L2038.985,551.588 L2016.781,551.588 L2016.781,576.697 C2016.781,580.242 2017.725,582.892 2019.612,584.648 C2021.499,586.404 2024.281,587.281 2027.957,587.281 C2029.532,587.281 2031.256,587.158 2033.127,586.912 C2034.997,586.666 2036.95,586.28 2038.985,585.755 L2038.985,593.141 z" fill="#FFFFFF"/>
      <path d="M2097.622,568.721 C2097.622,572.561 2097.08,576.081 2095.997,579.282 C2094.914,582.482 2093.355,585.223 2091.32,587.504 C2089.285,589.785 2086.807,591.557 2083.886,592.821 C2080.965,594.085 2077.65,594.716 2073.941,594.716 C2070.396,594.716 2067.22,594.166 2064.414,593.067 C2061.607,591.967 2059.228,590.351 2057.275,588.218 C2055.323,586.084 2053.829,583.442 2052.795,580.291 C2051.761,577.141 2051.244,573.513 2051.244,569.411 C2051.244,565.57 2051.786,562.067 2052.869,558.899 C2053.952,555.732 2055.511,553.008 2057.546,550.726 C2059.581,548.445 2062.059,546.673 2064.98,545.409 C2067.901,544.146 2071.217,543.514 2074.925,543.514 C2078.47,543.514 2081.646,544.064 2084.452,545.163 C2087.259,546.263 2089.638,547.871 2091.591,549.988 C2093.544,552.105 2095.037,554.739 2096.071,557.89 C2097.105,561.041 2097.622,564.651 2097.622,568.721 z M2088.859,569.115 C2088.859,566.063 2088.522,563.396 2087.849,561.115 C2087.177,558.833 2086.216,556.93 2084.969,555.404 C2083.722,553.878 2082.204,552.729 2080.415,551.957 C2078.626,551.186 2076.633,550.8 2074.434,550.8 C2071.874,550.8 2069.682,551.301 2067.861,552.302 C2066.04,553.303 2064.546,554.64 2063.381,556.314 C2062.215,557.988 2061.362,559.933 2060.821,562.148 C2060.279,564.364 2060.008,566.686 2060.008,569.115 C2060.008,572.168 2060.345,574.842 2061.018,577.14 C2061.691,579.438 2062.651,581.35 2063.897,582.876 C2065.145,584.402 2066.654,585.551 2068.427,586.322 C2070.199,587.094 2072.201,587.479 2074.434,587.479 C2076.993,587.479 2079.185,586.979 2081.006,585.978 C2082.827,584.976 2084.321,583.639 2085.486,581.965 C2086.652,580.291 2087.505,578.346 2088.046,576.131 C2088.588,573.915 2088.859,571.576 2088.859,569.115 z" fill="#FFFFFF"/>
    </g>
    <path d="M1683.144,685.697 C1549.635,685.697 1423.998,672.834 1329.378,649.477 C1259.624,632.26 1176.475,601.681 1176.475,553.779 C1176.475,505.876 1259.624,475.297 1329.378,458.08 C1423.999,434.723 1549.636,421.86 1683.144,421.86 C1816.652,421.86 1942.29,434.723 2036.91,458.08 C2106.665,475.297 2189.813,505.876 2189.813,553.779 C2189.813,601.681 2106.665,632.26 2036.91,649.477 C1942.289,672.834 1816.652,685.697 1683.144,685.697 z M1683.144,440.483 C1551.305,440.483 1427.477,453.127 1334.468,476.085 C1248.02,497.423 1196.41,526.469 1196.41,553.778 C1196.41,581.088 1248.021,610.133 1334.468,631.471 C1427.477,654.43 1551.305,667.073 1683.144,667.073 C1814.983,667.073 1938.812,654.43 2031.82,631.471 C2118.268,610.133 2169.879,581.088 2169.879,553.778 C2169.879,526.468 2118.268,497.423 2031.82,476.085 C1938.811,453.127 1814.983,440.483 1683.144,440.483 z" fill="#FBC448"/>
  </g>
</svg>
