<?xml version="1.0" encoding="utf-8"?>
<!-- Generator: Adobe Illustrator 15.0.0, SVG Export Plug-In . SVG Version: 6.00 Build 0)  -->
<!DOCTYPE svg PUBLIC "-//W3C//DTD SVG 1.1//EN" "http://www.w3.org/Graphics/SVG/1.1/DTD/svg11.dtd">
<svg version="1.1"  xmlns="http://www.w3.org/2000/svg" xmlns:xlink="http://www.w3.org/1999/xlink" x="0px" y="0px"
	 width="48px" height="48px" viewBox="0 0 48 48" enable-background="new 0 0 48 48" xml:space="preserve">
<g>
	<circle fill="#6D4C41" cx="11.5" cy="38.5" r="3.5"/>
	<circle fill="#6D4C41" cx="18.5" cy="38.5" r="3.5"/>
</g>
<path fill="#E8EAF6" d="M41,36H7V15l17-6l17,6V36z"/>
<rect x="11" y="20" fill="#01579B" width="14" height="7"/>
<path fill="#D32F2F" d="M43,18l-19-7L5,18v-5l19-7l19,7V18z"/>
<rect x="30" y="36" fill="#9FA8DA" width="8" height="3"/>
<g>
	<rect x="7" y="31" fill="#C5CAE9" width="34" height="5"/>
	<rect x="30" y="39" fill="#C5CAE9" width="8" height="3"/>
</g>
<g>
	<circle fill="#A1887F" cx="11.5" cy="38.5" r="1.5"/>
	<circle fill="#A1887F" cx="18.5" cy="38.5" r="1.5"/>
</g>
<rect x="30" y="22" fill="#D84315" width="8" height="14"/>
<path fill="#FF8A65" d="M35.5,28c-0.275,0-0.5,0.225-0.5,0.5v2c0,0.275,0.225,0.5,0.5,0.5s0.5-0.225,0.5-0.5v-2
	C36,28.225,35.775,28,35.5,28"/>
</svg>
