<?xml version="1.0" encoding="iso-8859-1"?>
<!-- Generator: Adobe Illustrator 19.2.1, SVG Export Plug-In . SVG Version: 6.00 Build 0)  -->
<svg version="1.1" id="Layer_1" xmlns="http://www.w3.org/2000/svg" xmlns:xlink="http://www.w3.org/1999/xlink" x="0px" y="0px"
	 viewBox="0 0 40 40" style="enable-background:new 0 0 40 40;" xml:space="preserve">
<g>
	<path style="fill:#788B9C;" d="M23.812,21.89c-0.014,0.038-0.034,0.072-0.048,0.11H39v-1H24.866
		C24.564,21.342,24.215,21.647,23.812,21.89z"/>
	<path style="fill:#788B9C;" d="M26.218,27H39v-1H24.602C25.159,26.299,25.701,26.63,26.218,27z"/>
	
		<rect x="31.997" y="9.997" transform="matrix(0.0018 -1 1 0.0018 15.9397 48.9679)" style="fill:#788B9C;" width="1" height="13.006"/>
</g>
<g>
	<path style="fill:#8BB7F0;" d="M1.514,35.5c0.274-5.007,4.649-9,9.986-9h7c5.337,0,9.712,3.993,9.986,9H1.514z"/>
	<g>
		<path style="fill:#4E7AB5;" d="M18.5,27c4.882,0,8.915,3.506,9.442,8H2.058c0.527-4.494,4.56-8,9.442-8H18.5 M18.5,26h-7
			C5.701,26,1,30.477,1,36h28C29,30.477,24.299,26,18.5,26L18.5,26z"/>
	</g>
</g>
<g>
	<path style="fill:#DEB974;" d="M15,28.5c-2.816,0-3.975-1.775-4.214-2.206v-5.437h8.428v5.438C18.977,26.722,17.819,28.5,15,28.5z"
		/>
	<g>
		<path style="fill:#967A44;" d="M18.714,21.358v4.802C18.416,26.637,17.36,28,15,28c-2.351,0-3.414-1.364-3.714-1.842v-4.8H18.714
			 M19.714,20.358h-9.429v6.058c0,0,1.195,2.584,4.714,2.584s4.714-2.584,4.714-2.584V20.358L19.714,20.358z"/>
	</g>
</g>
<g>
	<g>
		<path style="fill:#DEB974;" d="M21.071,18.357c-1.063,0-1.929-0.865-1.929-1.929s0.865-1.929,1.929-1.929
			c1.78,0,1.929,0.553,1.929,1.119C23,16.789,22.047,18.357,21.071,18.357z M8.929,18.357C7.953,18.357,7,16.789,7,15.619
			C7,15.053,7.148,14.5,8.929,14.5c1.063,0,1.929,0.865,1.929,1.929S9.992,18.357,8.929,18.357z"/>
	</g>
	<g>
		<path style="fill:#967A44;" d="M21.071,15c1.429,0,1.429,0.315,1.429,0.619c0,0.962-0.814,2.238-1.429,2.238
			c-0.788,0-1.429-0.641-1.429-1.429C19.643,15.641,20.284,15,21.071,15 M8.929,15c0.788,0,1.429,0.641,1.429,1.429
			c0,0.788-0.641,1.429-1.429,1.429c-0.614,0-1.429-1.276-1.429-2.238C7.5,15.315,7.5,15,8.929,15 M21.071,14
			c-1.341,0-2.429,1.087-2.429,2.429c0,1.341,1.087,2.429,2.429,2.429c1.341,0,2.429-1.897,2.429-3.238S22.413,14,21.071,14
			L21.071,14z M8.929,14C7.587,14,6.5,14.278,6.5,15.619s1.087,3.238,2.429,3.238c1.341,0,2.429-1.087,2.429-2.429
			C11.357,15.087,10.27,14,8.929,14L8.929,14z"/>
	</g>
</g>
<g>
	<g>
		<path style="fill:#F5CE85;" d="M15,25.5c-0.535,0-1.037-0.209-1.416-0.588l-0.096-0.096l-0.132-0.034
			C10.497,24.035,8.5,21.452,8.5,18.5v-8.136c0-1.564,1.272-2.837,2.836-2.837h7.328c1.563,0,2.836,1.272,2.836,2.837V18.5
			c0,2.952-1.997,5.535-4.856,6.282l-0.132,0.034l-0.096,0.096C16.037,25.291,15.535,25.5,15,25.5z"/>
	</g>
	<g>
		<path style="fill:#967A44;" d="M18.664,8.028c1.288,0,2.336,1.048,2.336,2.336V18.5c0,2.725-1.843,5.109-4.483,5.798l-0.263,0.069
			l-0.192,0.193C15.778,24.843,15.401,25,15,25s-0.778-0.157-1.062-0.441l-0.192-0.193l-0.263-0.069C10.843,23.609,9,21.225,9,18.5
			v-8.136c0-1.288,1.048-2.336,2.336-2.336H18.664 M18.664,7.028h-7.328C9.494,7.028,8,8.521,8,10.364V18.5
			c0,3.253,2.223,5.981,5.23,6.766C13.683,25.719,14.309,26,15,26s1.317-0.281,1.77-0.734C19.777,24.481,22,21.753,22,18.5v-8.136
			C22,8.521,20.506,7.028,18.664,7.028L18.664,7.028z"/>
	</g>
</g>
<g>
	<path style="fill:#A6714E;" d="M21.5,16.5v-3.129c0-3.323-2.461-4.208-2.565-4.244l-0.33-0.113l-0.222,0.271
		c-0.021,0.026-2.188,2.645-5.269,2.645c-0.244,0-0.496-0.008-0.749-0.016c-0.266-0.008-0.532-0.017-0.794-0.017
		c-0.919,0-3.071,0-3.071,2.418V16.5H8.312C7.958,15.739,7,13.462,7,11.086C7,6.619,10.29,3.5,15,3.5
		c3.167,0,4.509,2.297,4.564,2.395l0.099,0.174l0.192,0.06C21.205,6.535,23,7.533,23,11.485c0,1.147-0.882,3.763-1.346,5.015H21.5z"
		/>
	<g>
		<path style="fill:#7A4F34;" d="M15,4c2.856,0,4.08,2.056,4.127,2.137l0.197,0.353l0.387,0.117
			c1.299,0.392,2.789,1.301,2.789,4.879c0,0.518-0.215,1.434-0.5,2.401v-0.516c0-3.676-2.785-4.676-2.903-4.717l-0.66-0.224
			l-0.441,0.538c-0.02,0.025-2.049,2.46-4.882,2.46c-0.239,0-0.486-0.008-0.734-0.015c-0.27-0.008-0.542-0.016-0.808-0.016
			c-0.877,0-3.534,0-3.572,2.854c-0.272-0.921-0.5-2.033-0.5-3.164C7.5,6.914,10.584,4,15,4 M15,3c-5.053,0-8.5,3.457-8.5,8.086
			C6.5,14.152,8,17,8,17h1c0,0,0-1.842,0-2.686c0-1.689,1.205-1.918,2.573-1.918c0.509,0,1.041,0.032,1.541,0.032
			c3.369,0,5.657-2.828,5.657-2.828S21,10.366,21,13.371C21,14.299,21,17,21,17h1c0,0,1.5-3.889,1.5-5.514
			c0-3.923-1.709-5.296-3.5-5.837C20,5.649,18.519,3,15,3L15,3z"/>
	</g>
</g>
</svg>
